{
  "accessors": [
    {
      "bufferView": 2,
      "componentType": 5126,
      "count": 84,
      "max": [
        0.7344411015510559,
        0.0,
        2.6229004859924316
      ],
      "min": [
        -0.7344411015510559,
        -0.13500000536441803,
        0.0
      ],
      "type": "VEC3"
    },
    {
      "bufferView": 2,
      "byteOffset": 1008,
      "componentType": 5126,
      "count": 84,
      "max": [
        1.0,
        0.0,
        1.0
      ],
      "min": [
        -1.0,
        -1.0,
        -1.0
      ],
      "type": "VEC3"
    },
    {
      "bufferView": 3,
      "componentType": 5126,
      "count": 84,
      "max": [
        5.296983090374852e-06,
        1.0,
        0.0,
        1.0
      ],
      "min": [
        -1.0,
        -1.0,
        -1.0,
        1.0
      ],
      "type": "VEC4"
    },
    {
      "bufferView": 1,
      "componentType": 5126,
      "count": 84,
      "max": [
        0.700872540473938,
        0.8386017084121704
      ],
      "min": [
        0.0013983522076159716,
        0.0013983433600515127
      ],
      "type": "VEC2"
    },
    {
      "bufferView": 1,
      "byteOffset": 672,
      "componentType": 5126,
      "count": 84,
      "max": [
        0.700872540473938,
        0.8386017084121704
      ],
      "min": [
        0.0013983522076159716,
        0.0013983433600515127
      ],
      "type": "VEC2"
    },
    {
      "bufferView": 1,
      "byteOffset": 1344,
      "componentType": 5126,
      "count": 84,
      "max": [
        0.700872540473938,
        0.8386017084121704
      ],
      "min": [
        0.0013983522076159716,
        0.0013983433600515127
      ],
      "type": "VEC2"
    },
    {
      "bufferView": 0,
      "componentType": 5125,
      "count": 156,
      "type": "SCALAR"
    },
    {
      "bufferView": 2,
      "byteOffset": 2016,
      "componentType": 5126,
      "count": 116,
      "max": [
        0.0,
        0.02573062852025032,
        1.2538552284240723
      ],
      "min": [
        -0.6497244238853455,
        -0.025730639696121216,
        -1.0098402500152588
      ],
      "type": "VEC3"
    },
    {
      "bufferView": 2,
      "byteOffset": 3408,
      "componentType": 5126,
      "count": 116,
      "max": [
        1.0,
        1.0,
        1.0
      ],
      "min": [
        -1.0,
        -1.0,
        -1.0
      ],
      "type": "VEC3"
    },
    {
      "bufferView": 3,
      "byteOffset": 1344,
      "componentType": 5126,
      "count": 116,
      "max": [
        1.0,
        1.0,
        2.216387201769976e-06,
        1.0
      ],
      "min": [
        -1.0,
        -1.0,
        -1.0,
        1.0
      ],
      "type": "VEC4"
    },
    {
      "bufferView": 1,
      "byteOffset": 2016,
      "componentType": 5126,
      "count": 116,
      "max": [
        0.9540296792984009,
        0.996827244758606
      ],
      "min": [
        0.0563960075378418,
        0.003370769554749131
      ],
      "type": "VEC2"
    },
    {
      "bufferView": 1,
      "byteOffset": 2944,
      "componentType": 5126,
      "count": 116,
      "max": [
        0.9540296792984009,
        0.996827244758606
      ],
      "min": [
        0.0563960075378418,
        0.003370769554749131
      ],
      "type": "VEC2"
    },
    {
      "bufferView": 1,
      "byteOffset": 3872,
      "componentType": 5126,
      "count": 116,
      "max": [
        0.9540296792984009,
        0.996827244758606
      ],
      "min": [
        0.0563960075378418,
        0.003370769554749131
      ],
      "type": "VEC2"
    },
    {
      "bufferView": 0,
      "byteOffset": 624,
      "componentType": 5125,
      "count": 204,
      "type": "SCALAR"
    },
    {
      "bufferView": 2,
      "byteOffset": 4800,
      "componentType": 5126,
      "count": 210,
      "max": [
        0.10987743735313416,
        0.0,
        0.12769009172916412
      ],
      "min": [
        -0.026712823659181595,
        -0.020252445712685585,
        -0.12769019603729248
      ],
      "type": "VEC3"
    },
    {
      "bufferView": 2,
      "byteOffset": 7320,
      "componentType": 5126,
      "count": 210,
      "max": [
        1.0,
        1.0,
        1.0
      ],
      "min": [
        -1.0,
        -1.0,
        -1.0
      ],
      "type": "VEC3"
    },
    {
      "bufferView": 3,
      "byteOffset": 3200,
      "componentType": 5126,
      "count": 210,
      "max": [
        1.0,
        0.6559125185012817,
        0.6659988760948181,
        1.0
      ],
      "min": [
        -1.0,
        -0.6559175848960876,
        -1.0,
        1.0
      ],
      "type": "VEC4"
    },
    {
      "bufferView": 1,
      "byteOffset": 4800,
      "componentType": 5126,
      "count": 210,
      "max": [
        0.9974323511123657,
        0.9961413145065308
      ],
      "min": [
        0.8623135089874268,
        0.8801271915435791
      ],
      "type": "VEC2"
    },
    {
      "bufferView": 1,
      "byteOffset": 6480,
      "componentType": 5126,
      "count": 210,
      "max": [
        0.9974323511123657,
        0.9961413145065308
      ],
      "min": [
        0.8623135089874268,
        0.8801271915435791
      ],
      "type": "VEC2"
    },
    {
      "bufferView": 1,
      "byteOffset": 8160,
      "componentType": 5126,
      "count": 210,
      "max": [
        0.9974323511123657,
        0.9961413145065308
      ],
      "min": [
        0.8623135089874268,
        0.8801271915435791
      ],
      "type": "VEC2"
    },
    {
      "bufferView": 0,
      "byteOffset": 1440,
      "componentType": 5125,
      "count": 624,
      "type": "SCALAR"
    },
    {
      "bufferView": 2,
      "byteOffset": 9840,
      "componentType": 5126,
      "count": 114,
      "max": [
        0.6497244834899902,
        0.025730635970830917,
        1.2538552284240723
      ],
      "min": [
        0.0,
        -0.02573063224554062,
        -1.0098402500152588
      ],
      "type": "VEC3"
    },
    {
      "bufferView": 2,
      "byteOffset": 11208,
      "componentType": 5126,
      "count": 114,
      "max": [
        1.0,
        1.0,
        1.0
      ],
      "min": [
        -1.0,
        -1.0,
        -1.0
      ],
      "type": "VEC3"
    },
    {
      "bufferView": 3,
      "byteOffset": 6560,
      "componentType": 5126,
      "count": 114,
      "max": [
        1.0,
        1.0,
        2.4648045382491546e-06,
        1.0
      ],
      "min": [
        -1.0,
        -1.0,
        -1.0,
        1.0
      ],
      "type": "VEC4"
    },
    {
      "bufferView": 1,
      "byteOffset": 9840,
      "componentType": 5126,
      "count": 114,
      "max": [
        0.989982008934021,
        0.996827244758606
      ],
      "min": [
        0.003370769554749131,
        0.003370769554749131
      ],
      "type": "VEC2"
    },
    {
      "bufferView": 1,
      "byteOffset": 10752,
      "componentType": 5126,
      "count": 114,
      "max": [
        0.989982008934021,
        0.996827244758606
      ],
      "min": [
        0.003370769554749131,
        0.003370769554749131
      ],
      "type": "VEC2"
    },
    {
      "bufferView": 1,
      "byteOffset": 11664,
      "componentType": 5126,
      "count": 114,
      "max": [
        0.989982008934021,
        0.996827244758606
      ],
      "min": [
        0.003370769554749131,
        0.003370769554749131
      ],
      "type": "VEC2"
    },
    {
      "bufferView": 0,
      "byteOffset": 3936,
      "componentType": 5125,
      "count": 204,
      "type": "SCALAR"
    },
    {
      "bufferView": 2,
      "byteOffset": 12576,
      "componentType": 5126,
      "count": 210,
      "max": [
        0.02671281434595585,
        0.0,
        0.12769019603729248
      ],
      "min": [
        -0.10987744480371475,
        -0.020252445712685585,
        -0.12769009172916412
      ],
      "type": "VEC3"
    },
    {
      "bufferView": 2,
      "byteOffset": 15096,
      "componentType": 5126,
      "count": 210,
      "max": [
        1.0,
        1.0,
        1.0
      ],
      "min": [
        -1.0,
        -1.0,
        -1.0
      ],
      "type": "VEC3"
    },
    {
      "bufferView": 3,
      "byteOffset": 8384,
      "componentType": 5126,
      "count": 210,
      "max": [
        1.0,
        0.6559126377105713,
        0.6660001873970032,
        -1.0
      ],
      "min": [
        -1.0,
        -0.6559176445007324,
        -1.0,
        -1.0
      ],
      "type": "VEC4"
    },
    {
      "bufferView": 1,
      "byteOffset": 12576,
      "componentType": 5126,
      "count": 210,
      "max": [
        0.9974323511123657,
        0.9961413145065308
      ],
      "min": [
        0.8623135089874268,
        0.8801271915435791
      ],
      "type": "VEC2"
    },
    {
      "bufferView": 1,
      "byteOffset": 14256,
      "componentType": 5126,
      "count": 210,
      "max": [
        0.9974323511123657,
        0.9961413145065308
      ],
      "min": [
        0.8623135089874268,
        0.8801271915435791
      ],
      "type": "VEC2"
    },
    {
      "bufferView": 1,
      "byteOffset": 15936,
      "componentType": 5126,
      "count": 210,
      "max": [
        0.9974323511123657,
        0.9961413145065308
      ],
      "min": [
        0.8623135089874268,
        0.8801271915435791
      ],
      "type": "VEC2"
    },
    {
      "bufferView": 0,
      "byteOffset": 4752,
      "componentType": 5125,
      "count": 624,
      "type": "SCALAR"
    },
    {
      "bufferView": 2,
      "byteOffset": 17616,
      "componentType": 5126,
      "count": 442,
      "max": [
        0.9571195244789124,
        -2.561137080192566e-09,
        2.6228981018066406
      ],
      "min": [
        -0.9571195244789124,
        -0.3095419406890869,
        0.0
      ],
      "type": "VEC3"
    },
    {
      "bufferView": 2,
      "byteOffset": 22920,
      "componentType": 5126,
      "count": 442,
      "max": [
        1.0,
        0.0,
        1.0
      ],
      "min": [
        -1.0,
        -1.0,
        -1.0
      ],
      "type": "VEC3"
    },
    {
      "bufferView": 3,
      "byteOffset": 11744,
      "componentType": 5126,
      "count": 442,
      "max": [
        1.0,
        1.0,
        0.6717904806137085,
        1.0
      ],
      "min": [
        -1.0,
        -1.0,
        -1.0,
        1.0
      ],
      "type": "VEC4"
    },
    {
      "bufferView": 1,
      "byteOffset": 17616,
      "componentType": 5126,
      "count": 442,
      "max": [
        0.9950144290924072,
        0.9939374327659607
      ],
      "min": [
        0.009263022802770138,
        0.0040662288665771484
      ],
      "type": "VEC2"
    },
    {
      "bufferView": 1,
      "byteOffset": 21152,
      "componentType": 5126,
      "count": 442,
      "max": [
        0.9950144290924072,
        0.9939374327659607
      ],
      "min": [
        0.009263022802770138,
        0.0040662288665771484
      ],
      "type": "VEC2"
    },
    {
      "bufferView": 1,
      "byteOffset": 24688,
      "componentType": 5126,
      "count": 442,
      "max": [
        0.9950144290924072,
        0.9939374327659607
      ],
      "min": [
        0.009263022802770138,
        0.0040662288665771484
      ],
      "type": "VEC2"
    },
    {
      "bufferView": 0,
      "byteOffset": 7248,
      "componentType": 5125,
      "count": 816,
      "type": "SCALAR"
    },
    {
      "bufferView": 2,
      "byteOffset": 28224,
      "componentType": 5126,
      "count": 599,
      "max": [
        1.0722615718841553,
        0.0,
        0.6139082908630371
      ],
      "min": [
        -1.0722615718841553,
        -0.41653919219970703,
        0.0
      ],
      "type": "VEC3"
    },
    {
      "bufferView": 2,
      "byteOffset": 35412,
      "componentType": 5126,
      "count": 599,
      "max": [
        1.0,
        0.00810706615447998,
        1.0
      ],
      "min": [
        -1.0,
        -1.0,
        -1.0
      ],
      "type": "VEC3"
    },
    {
      "bufferView": 3,
      "byteOffset": 18816,
      "componentType": 5126,
      "count": 599,
      "max": [
        1.0,
        1.0,
        1.0,
        1.0
      ],
      "min": [
        -1.0,
        -1.0,
        -1.0,
        1.0
      ],
      "type": "VEC4"
    },
    {
      "bufferView": 1,
      "byteOffset": 28224,
      "componentType": 5126,
      "count": 599,
      "max": [
        0.9919150471687317,
        0.9982976913452148
      ],
      "min": [
        0.001702293404377997,
        0.0017022843239828944
      ],
      "type": "VEC2"
    },
    {
      "bufferView": 1,
      "byteOffset": 33016,
      "componentType": 5126,
      "count": 599,
      "max": [
        0.9919150471687317,
        0.9982976913452148
      ],
      "min": [
        0.001702293404377997,
        0.0017022843239828944
      ],
      "type": "VEC2"
    },
    {
      "bufferView": 1,
      "byteOffset": 37808,
      "componentType": 5126,
      "count": 599,
      "max": [
        0.9919150471687317,
        0.9982976913452148
      ],
      "min": [
        0.001702293404377997,
        0.0017022843239828944
      ],
      "type": "VEC2"
    },
    {
      "bufferView": 0,
      "byteOffset": 10512,
      "componentType": 5125,
      "count": 1659,
      "type": "SCALAR"
    }
  ],
  "asset": {
    "extras": {
      "author": "Esther3D (https://sketchfab.com/Esther3d)",
      "license": "CC-BY-4.0 (http://creativecommons.org/licenses/by/4.0/)",
      "source": "https://sketchfab.com/3d-models/door-front-ae93a398d25348cfa50173b41690e537",
      "title": "Door Front"
    },
    "generator": "Sketchfab-15.49.0",
    "version": "2.0"
  },
  "bufferViews": [
    {
      "buffer": 0,
      "byteLength": 17148,
      "name": "floatBufferViews",
      "target": 34963
    },
    {
      "buffer": 0,
      "byteLength": 42600,
      "byteOffset": 17148,
      "byteStride": 8,
      "name": "floatBufferViews",
      "target": 34962
    },
    {
      "buffer": 0,
      "byteLength": 42600,
      "byteOffset": 59748,
      "byteStride": 12,
      "name": "floatBufferViews",
      "target": 34962
    },
    {
      "buffer": 0,
      "byteLength": 28400,
      "byteOffset": 102348,
      "byteStride": 16,
      "name": "floatBufferViews",
      "target": 34962
    }
  ],
  "buffers": [
    {
      "byteLength": 130748,
      "uri": "scene.bin"
    }
  ],
  "images": [
    {
      "uri": "textures/Pilaster-Frame-Texture_baseColor.png"
    },
    {
      "uri": "textures/Pilaster-Frame-Texture_normal.png"
    },
    {
      "uri": "textures/Door-Hadles-Texture_baseColor.png"
    },
    {
      "uri": "textures/Door-Hadles-Texture_normal.png"
    },
    {
      "uri": "textures/Pediment-Texture_baseColor.png"
    },
    {
      "uri": "textures/Pediment-Texture_normal.png"
    }
  ],
  "materials": [
    {
      "doubleSided": true,
      "name": "Pilaster-Frame-Texture",
      "normalTexture": {
        "index": 1
      },
      "pbrMetallicRoughness": {
        "baseColorTexture": {
          "index": 0
        },
        "metallicFactor": 0.0,
        "roughnessFactor": 0.8211145618000169
      }
    },
    {
      "doubleSided": true,
      "name": "Door-Hadles-Texture",
      "normalTexture": {
        "index": 3
      },
      "pbrMetallicRoughness": {
        "baseColorTexture": {
          "index": 2
        },
        "metallicFactor": 0.8713845380885922,
        "roughnessFactor": 0.8211145618000169
      }
    },
    {
      "doubleSided": true,
      "name": "Pediment-Texture",
      "normalTexture": {
        "index": 5
      },
      "pbrMetallicRoughness": {
        "baseColorTexture": {
          "index": 4
        },
        "metallicFactor": 0.0,
        "roughnessFactor": 0.8211145618000169
      }
    }
  ],
  "meshes": [
    {
      "name": "Frame_Pilaster-Frame-Texture_0",
      "primitives": [
        {
          "attributes": {
            "NORMAL": 1,
            "POSITION": 0,
            "TANGENT": 2,
            "TEXCOORD_0": 3,
            "TEXCOORD_1": 4,
            "TEXCOORD_2": 5
          },
          "indices": 6,
          "material": 0,
          "mode": 4
        }
      ]
    },
    {
      "name": "Door.002_Door-Hadles-Texture_0",
      "primitives": [
        {
          "attributes": {
            "NORMAL": 8,
            "POSITION": 7,
            "TANGENT": 9,
            "TEXCOORD_0": 10,
            "TEXCOORD_1": 11,
            "TEXCOORD_2": 12
          },
          "indices": 13,
          "material": 1,
          "mode": 4
        }
      ]
    },
    {
      "name": "Handles.002_Door-Hadles-Texture_0",
      "primitives": [
        {
          "attributes": {
            "NORMAL": 15,
            "POSITION": 14,
            "TANGENT": 16,
            "TEXCOORD_0": 17,
            "TEXCOORD_1": 18,
            "TEXCOORD_2": 19
          },
          "indices": 20,
          "material": 1,
          "mode": 4
        }
      ]
    },
    {
      "name": "Door.001_Door-Hadles-Texture_0",
      "primitives": [
        {
          "attributes": {
            "NORMAL": 22,
            "POSITION": 21,
            "TANGENT": 23,
            "TEXCOORD_0": 24,
            "TEXCOORD_1": 25,
            "TEXCOORD_2": 26
          },
          "indices": 27,
          "material": 1,
          "mode": 4
        }
      ]
    },
    {
      "name": "Handles.001_Door-Hadles-Texture_0",
      "primitives": [
        {
          "attributes": {
            "NORMAL": 29,
            "POSITION": 28,
            "TANGENT": 30,
            "TEXCOORD_0": 31,
            "TEXCOORD_1": 32,
            "TEXCOORD_2": 33
          },
          "indices": 34,
          "material": 1,
          "mode": 4
        }
      ]
    },
    {
      "name": "Pilasters_Pilaster-Frame-Texture_0",
      "primitives": [
        {
          "attributes": {
            "NORMAL": 36,
            "POSITION": 35,
            "TANGENT": 37,
            "TEXCOORD_0": 38,
            "TEXCOORD_1": 39,
            "TEXCOORD_2": 40
          },
          "indices": 41,
          "material": 0,
          "mode": 4
        }
      ]
    },
    {
      "name": "Pediment_Pediment-Texture_0",
      "primitives": [
        {
          "attributes": {
            "NORMAL": 43,
            "POSITION": 42,
            "TANGENT": 44,
            "TEXCOORD_0": 45,
            "TEXCOORD_1": 46,
            "TEXCOORD_2": 47
          },
          "indices": 48,
          "material": 2,
          "mode": 4
        }
      ]
    }
  ],
  "nodes": [
    {
      "children": [
        1
      ],
      "matrix": [
        1.0,
        0.0,
        0.0,
        0.0,
        0.0,
        2.220446049250313e-16,
        -1.0,
        0.0,
        0.0,
        1.0,
        2.220446049250313e-16,
        0.0,
        0.0,
        0.0,
        0.0,
        1.0
      ],
      "name": "Sketchfab_model"
    },
    {
      "children": [
        2
      ],
      "matrix": [
        0.009999999776482582,
        0.0,
        0.0,
        0.0,
        0.0,
        0.0,
        0.009999999776482582,
        0.0,
        0.0,
        -0.009999999776482582,
        0.0,
        0.0,
        0.0,
        0.0,
        0.0,
        1.0
      ],
      "name": "Door Front Model .fbx"
    },
    {
      "children": [
        3
      ],
      "name": "RootNode"
    },
    {
      "children": [
        4,
        14,
        16
      ],
      "matrix": [
        100.0,
        0.0,
        0.0,
        0.0,
        0.0,
        -1.629206793918314e-05,
        -99.99999999999868,
        0.0,
        0.0,
        99.99999999999868,
        -1.629206793918314e-05,
        0.0,
        0.0,
        0.0,
        2.561137080192566e-07,
        1.0
      ],
      "name": "Door Front Model"
    },
    {
      "children": [
        5,
        6,
        10
      ],
      "matrix": [
        1.0,
        0.0,
        0.0,
        0.0,
        0.0,
        1.0,
        -2.646977960169688e-23,
        0.0,
        0.0,
        2.646977960169688e-23,
        1.0,
        0.0,
        0.9351674914360046,
        2.561137080192566e-09,
        4.930380657631324e-32,
        1.0
      ],
      "name": "Frame"
    },
    {
      "mesh": 0,
      "name": "Frame_Pilaster-Frame-Texture_0"
    },
    {
      "children": [
        7,
        8
      ],
      "matrix": [
        1.0,
        0.0,
        0.0,
        0.0,
        0.0,
        1.0,
        -2.646977960169688e-23,
        0.0,
        0.0,
        2.646977960169688e-23,
        1.0,
        0.0,
        0.650262176990509,
        -0.10588052123785019,
        1.0103051662445068,
        1.0
      ],
      "name": "Door.002"
    },
    {
      "mesh": 1,
      "name": "Door.002_Door-Hadles-Texture_0"
    },
    {
      "children": [
        9
      ],
      "matrix": [
        1.0,
        0.0,
        0.0,
        0.0,
        0.0,
        1.0,
        -2.646977960169688e-23,
        0.0,
        0.0,
        2.646977960169688e-23,
        1.0,
        0.0,
        -0.6085233688354492,
        -0.025730647146701813,
        0.19014489650726318,
        1.0
      ],
      "name": "Handles.002"
    },
    {
      "mesh": 2,
      "name": "Handles.002_Door-Hadles-Texture_0"
    },
    {
      "children": [
        11,
        12
      ],
      "matrix": [
        1.0,
        0.0,
        0.0,
        0.0,
        0.0,
        1.0,
        -2.646977960169688e-23,
        0.0,
        0.0,
        2.646977960169688e-23,
        1.0,
        0.0,
        -0.6502622365951538,
        -0.10588052868843079,
        1.0103051662445068,
        1.0
      ],
      "name": "Door.001"
    },
    {
      "mesh": 3,
      "name": "Door.001_Door-Hadles-Texture_0"
    },
    {
      "children": [
        13
      ],
      "matrix": [
        1.0,
        0.0,
        0.0,
        0.0,
        0.0,
        1.0,
        -2.646977960169688e-23,
        0.0,
        0.0,
        2.646977960169688e-23,
        1.0,
        0.0,
        0.6085234880447388,
        -0.025730639696121216,
        0.19014477729797363,
        1.0
      ],
      "name": "Handles.001"
    },
    {
      "mesh": 4,
      "name": "Handles.001_Door-Hadles-Texture_0"
    },
    {
      "children": [
        15
      ],
      "matrix": [
        1.0,
        0.0,
        0.0,
        0.0,
        0.0,
        1.0,
        -2.646977960169688e-23,
        0.0,
        0.0,
        2.646977960169688e-23,
        1.0,
        0.0,
        0.9351674914360046,
        2.561137080192566e-09,
        4.930380657631324e-32,
        1.0
      ],
      "name": "Pilasters"
    },
    {
      "mesh": 5,
      "name": "Pilasters_Pilaster-Frame-Texture_0"
    },
    {
      "children": [
        17
      ],
      "matrix": [
        1.0,
        0.0,
        0.0,
        0.0,
        0.0,
        1.0,
        -2.646977960169688e-23,
        0.0,
        0.0,
        2.646977960169688e-23,
        1.0,
        0.0,
        0.9351674914360046,
        0.0002118747215718031,
        2.6228981018066406,
        1.0
      ],
      "name": "Pediment"
    },
    {
      "mesh": 6,
      "name": "Pediment_Pediment-Texture_0"
    }
  ],
  "samplers": [
    {
      "magFilter": 9729,
      "minFilter": 9987,
      "wrapS": 10497,
      "wrapT": 10497
    }
  ],
  "scene": 0,
  "scenes": [
    {
      "name": "Sketchfab_Scene",
      "nodes": [
        0
      ]
    }
  ],
  "textures": [
    {
      "sampler": 0,
      "source": 0
    },
    {
      "sampler": 0,
      "source": 1
    },
    {
      "sampler": 0,
      "source": 2
    },
    {
      "sampler": 0,
      "source": 3
    },
    {
      "sampler": 0,
      "source": 4
    },
    {
      "sampler": 0,
      "source": 5
    }
  ]
}
